<svg xmlns="http://www.w3.org/2000/svg" width="60" height="14" viewBox="0 0 60 14">
  <path d="M0 7C5 7 5 2 10 2C15 2 15 7 20 7C25 7 25 2 30 2C35 2 35 7 40 7C45 7 45 2 50 2C55 2 55 7 60 7" fill="none" stroke="#C9A84C" stroke-width="1" opacity="0.45"></path>
  <path d="M0 7C5 7 5 12 10 12C15 12 15 7 20 7C25 7 25 12 30 12C35 12 35 7 40 7C45 7 45 12 50 12C55 12 55 7 60 7" fill="none" stroke="#C9A84C" stroke-width="1" opacity="0.45"></path>
  <circle cx="10" cy="7" r="1.5" fill="#C9A84C" opacity="0.3"></circle>
  <circle cx="30" cy="7" r="1.5" fill="#C9A84C" opacity="0.3"></circle>
  <circle cx="50" cy="7" r="1.5" fill="#C9A84C" opacity="0.3"></circle>
</svg>