<svg xmlns="http://www.w3.org/2000/svg" width="240" height="16" viewBox="0 0 240 16">
  <defs>
    <linearGradient id="af" x1="0" y1="0" x2="1" y2="0">
      <stop offset="0" stop-color="#C9A84C" stop-opacity="0"></stop>
      <stop offset="0.15" stop-color="#C9A84C" stop-opacity="0.5"></stop>
      <stop offset="0.5" stop-color="#C9A84C" stop-opacity="0.7"></stop>
      <stop offset="0.85" stop-color="#C9A84C" stop-opacity="0.5"></stop>
      <stop offset="1" stop-color="#C9A84C" stop-opacity="0"></stop>
    </linearGradient>
  </defs>
  <line x1="0" y1="8" x2="240" y2="8" stroke="url(#af)" stroke-width="0.5"></line>
  <circle cx="120" cy="8" r="3" fill="none" stroke="#C9A84C" stroke-width="0.6" opacity="0.6"></circle>
  <circle cx="120" cy="8" r="1" fill="#C9A84C" opacity="0.4"></circle>
  <ellipse cx="120" cy="4.5" rx="1.5" ry="2.5" fill="none" stroke="#C9A84C" stroke-width="0.5" opacity="0.45"></ellipse>
  <ellipse cx="120" cy="11.5" rx="1.5" ry="2.5" fill="none" stroke="#C9A84C" stroke-width="0.5" opacity="0.45"></ellipse>
  <path d="M108 8 Q100 3 92 8 Q100 13 108 8" fill="none" stroke="#C9A84C" stroke-width="0.5" opacity="0.45"></path>
  <path d="M92 8 Q84 4 76 8 Q84 12 92 8" fill="none" stroke="#C9A84C" stroke-width="0.5" opacity="0.35"></path>
  <path d="M132 8 Q140 3 148 8 Q140 13 132 8" fill="none" stroke="#C9A84C" stroke-width="0.5" opacity="0.45"></path>
  <path d="M148 8 Q156 4 164 8 Q156 12 148 8" fill="none" stroke="#C9A84C" stroke-width="0.5" opacity="0.35"></path>
</svg>