<svg xmlns="http://www.w3.org/2000/svg" width="100" height="100" viewBox="0 0 100 100">
  <polygon points="50,5 58,22 75,10 63,27 85,25 68,37 90,45 68,48 85,60 63,53 75,75 58,62 50,85 42,62 25,75 37,53 15,60 32,48 10,45 32,37 15,25 37,27 25,10 42,22" fill="none" stroke="#C9A84C" stroke-width="0.5" opacity="0.45"></polygon>
  <polygon points="50,20 56,35 70,28 62,42 78,45 62,48 70,62 56,55 50,70 44,55 30,62 38,48 22,45 38,42 30,28 44,35" fill="none" stroke="#C9A84C" stroke-width="0.4" opacity="0.3"></polygon>
  <circle cx="50" cy="45" r="8" fill="none" stroke="#C9A84C" stroke-width="0.3" opacity="0.25"></circle>
</svg>